<?xml version="1.0" encoding="utf-8"?>
<!-- Generator: Adobe Illustrator 25.2.1, SVG Export Plug-In . SVG Version: 6.00 Build 0)  -->
<svg version="1.1" id="Layer_2" xmlns="http://www.w3.org/2000/svg" xmlns:xlink="http://www.w3.org/1999/xlink" x="0px" y="0px"
	 viewBox="0 0 612 792" style="enable-background:new 0 0 612 792;" xml:space="preserve">
<style type="text/css">
	.st0{fill:#FFFFFF;}
</style>
<g>
	<path d="M343.54,559.42l9.15-26.4h17.32l9.15,26.4h175.8l-33.39-61.36c12.02-10.47,19.34-25.82,19.34-42.35
		c0-31.08-25.29-56.37-56.37-56.37h-5.81c26.4-4.66,46.52-27.68,46.52-55.31c0-10.94-3.01-21.55-8.64-30.85
		c2.22-5.9,3.36-12.12,3.36-18.43c0-30.11-25.29-54.61-56.37-54.61H343.7v91.92c0,4.63-3.77,8.4-8.4,8.4s-8.4-3.77-8.4-8.4v-91.92
		h-62.4v91.92c0,1.94,0.1,3.86,0.25,5.76h-25.32v-97.68h-62.4v9.68c-13.01-8.01-27.94-12.32-43.25-12.32
		c-45.54,0-82.59,37.13-82.59,82.77c0,37.26,24.81,68.82,58.77,79.07H56.47v160.08h62.4v-52.8h19.44v52.8H343.54z"/>
	<path class="st0" d="M168.98,279.09c-9.5-8.1-21.82-13.02-35.2-13.02c-29.92,0-54.03,24.29-54.03,54.21s24.11,54.03,54.03,54.03
		c15.14,0,28.69-6.16,38.54-16.02l8.62,6.16c-11.79,12.5-28.51,20.42-47.17,20.42c-35.73,0-64.59-28.86-64.59-64.59
		s28.86-64.77,64.59-64.77c16.72,0,31.68,6.34,43.29,16.72L168.98,279.09z M156.13,289.12c-6.34-4.58-14.08-7.22-22.53-7.22
		c-21.12,0-38.19,17.25-38.19,38.37s17.07,38.19,38.19,38.19c9.68,0,18.66-3.52,25.34-9.5l8.98,6.34
		c-8.8,8.45-20.94,13.73-34.14,13.73c-26.93,0-48.75-21.82-48.75-48.75s21.82-48.93,48.75-48.93c11.62,0,22.35,4.22,30.8,11.09
		L156.13,289.12z"/>
	<path class="st0" d="M195.03,258.15h10.56v124.08h-10.56V258.15z M210.87,258.15h10.56v97.68h52.8v10.56h-52.8v5.28h52.8v10.56
		h-63.36V258.15z"/>
	<path class="st0" d="M293.06,332.06c0,23.23,19.01,42.24,42.24,42.24s42.24-19.01,42.24-42.24v-73.92h10.56v73.92
		c0,29.22-23.58,52.8-52.8,52.8c-29.22,0-52.8-23.58-52.8-52.8v-73.92h10.56V332.06z M308.9,258.15v73.92
		c0,14.61,11.79,26.4,26.4,26.4s26.4-11.79,26.4-26.4v-73.92h10.56v73.92c0,20.42-16.54,36.96-36.96,36.96s-36.96-16.54-36.96-36.96
		v-73.92H308.9z"/>
	<path class="st0" d="M425.24,284.54h-5.28v97.68H409.4V273.98h54.21c12.5,0,22.53,9.33,22.53,20.77
		c0,11.44-10.03,20.59-22.53,20.59H435.8v5.28h27.81c15.31,0,27.81-11.62,27.81-25.87c0-14.26-12.5-26.05-27.81-26.05H409.4v-10.56
		h54.21c21.12,0,38.37,16.54,38.37,36.61c0,7.57-2.46,14.43-6.51,20.24c7.04,7.39,11.79,17.6,11.79,29.04
		c0,21.12-17.25,38.19-38.37,38.19h-43.65V284.54z M435.8,284.54v20.24h27.81c6.69,0,11.97-4.4,11.97-10.03s-5.28-10.21-11.97-10.21
		H435.8z M488.24,322.56c-1.41,1.23-2.99,2.29-4.58,3.17c4.75,4.4,7.74,10.91,7.74,18.3c0,12.5-10.03,22.35-22.53,22.35H435.8v5.28
		h33.09c15.31,0,27.81-12.32,27.81-27.63C496.69,335.58,493.35,328.01,488.24,322.56z M471,330.48c-2.29,0.53-4.93,0.7-7.39,0.7
		H435.8v24.64h33.09c6.69,0,11.97-5.1,11.97-11.79C480.85,337.17,476.63,331.71,471,330.48z"/>
	<path class="st0" d="M74.47,417.34h10.56v124.08H74.47V417.34z M156.31,488.62h-55.44v52.8H90.31V417.34h10.56v44.88h55.44v-44.88
		h10.56v124.08h-10.56V488.62z M100.87,478.06h55.44v-5.28h-55.44V478.06z M172.15,417.34h10.56v124.08h-10.56V417.34z"/>
	<path class="st0" d="M220.37,443.74h-5.28v97.68h-10.56V433.18h54.21c12.5,0,22.53,9.33,22.53,20.77
		c0,11.44-10.03,20.59-22.53,20.59h-27.81v5.28h27.81c15.31,0,27.81-11.62,27.81-25.87s-12.5-26.05-27.81-26.05h-54.21v-10.56h54.21
		c21.12,0,38.37,16.54,38.37,36.61c0,7.57-2.46,14.43-6.51,20.24c7.04,7.39,11.79,17.6,11.79,29.04c0,21.12-17.25,38.19-38.37,38.19
		h-43.65V443.74z M230.93,443.74v20.24h27.81c6.69,0,11.97-4.4,11.97-10.03s-5.28-10.21-11.97-10.21H230.93z M283.38,481.76
		c-1.41,1.23-2.99,2.29-4.58,3.17c4.75,4.4,7.74,10.91,7.74,18.3c0,12.5-10.03,22.35-22.53,22.35h-33.09v5.28h33.09
		c15.31,0,27.81-12.32,27.81-27.63C291.83,494.78,288.48,487.21,283.38,481.76z M266.13,489.68c-2.29,0.53-4.93,0.7-7.39,0.7h-27.81
		v24.64h33.09c6.69,0,11.97-5.1,11.97-11.79C275.99,496.37,271.76,490.91,266.13,489.68z"/>
	<path class="st0" d="M346.04,417.34h11.26l-43.47,124.08h-11.09L346.04,417.34z M362.93,417.34h13.9l43.47,124.08h-11.26
		l-39.25-111.93l-2.82,8.27l36.25,103.66h-11.26l-9.15-26.4h-42.94l-9.15,26.4h-11.09L362.93,417.34z M343.57,504.46h35.55
		l-1.76-5.28h-31.86L343.57,504.46z M349.2,488.62h24.46l-12.14-35.38L349.2,488.62z"/>
	<path class="st0" d="M512.7,541.42l-25.87-47.52c-0.7,0.18-1.58,0-2.29,0h-4.05l25.87,47.52H494.4l-25.87-47.52h-11.79v47.52
		h-10.56v-97.68h-5.28v97.68h-10.56V433.18h54.21c12.5,0,22.53,10.03,22.53,22.53c0,12.5-10.03,22.35-22.53,22.35h-27.81v5.28h27.81
		c15.31,0,27.81-12.32,27.81-27.63s-12.5-27.81-27.81-27.81h-54.21v-10.56h54.21c21.12,0,38.37,17.25,38.37,38.37
		c0,16.54-10.56,30.62-25.34,35.9l27.1,49.81H512.7z M456.74,443.74v23.76h27.81c6.69,0,11.97-5.1,11.97-11.79
		c0-6.69-5.28-11.97-11.97-11.97H456.74z"/>
</g>
<path class="st0" d="M156.31,417.34"/>
</svg>
